<svg width="88" height="88" viewBox="0 0 88 88" fill="none" xmlns="http://www.w3.org/2000/svg">
<g clip-path="url(#clip0_19_63)">
<g clip-path="url(#clip1_19_63)">
<path d="M45.9085 3.47047C46.3247 2.73363 46.9574 2.14262 47.7209 1.7776C48.4844 1.41258 49.3417 1.29122 50.1765 1.42997L51.4855 1.64997C53.9687 2.06371 56.3365 2.99732 58.4339 4.38964C60.5313 5.78197 62.3109 7.60162 63.6562 9.72943C65.0015 11.8572 65.8822 14.2452 66.2407 16.737C66.5991 19.2288 66.4271 21.7682 65.736 24.189L63.217 33H66.8745C69.6529 32.9999 72.3931 33.6476 74.8775 34.8915C77.3619 36.1354 79.5221 37.9413 81.1867 40.1659C82.8513 42.3905 83.9744 44.9725 84.4668 47.7069C84.9592 50.4414 84.8074 53.2529 84.0235 55.9185L77.781 77.143C76.859 80.2776 74.9467 83.0294 72.3302 84.9865C69.7138 86.9437 66.5339 88.0009 63.2665 88H36.223C31.914 87.9994 27.7134 86.6492 24.211 84.139C23.3145 85.3379 22.1507 86.3111 20.8121 86.9814C19.4735 87.6516 17.997 88.0004 16.5 88H9.625C7.07229 88 4.62413 86.9859 2.8191 85.1809C1.01406 83.3758 0 80.9277 0 78.375L0 42.625C0 37.312 4.312 33 9.625 33H28.4185C28.6614 32.9993 28.8998 32.9344 29.1095 32.8117C29.3191 32.689 29.4925 32.5129 29.612 32.3015L45.9085 3.47047ZM26.125 75.0695L28.303 76.8845C30.525 78.738 33.33 79.75 36.223 79.75H63.2665C64.7519 79.751 66.1977 79.2709 67.3875 78.3816C68.5773 77.4922 69.447 76.2414 69.8665 74.8165L76.109 53.592C76.5314 52.1566 76.6133 50.6425 76.3482 49.1699C76.0831 47.6973 75.4784 46.3068 74.582 45.1088C73.6856 43.9107 72.5223 42.9382 71.1844 42.2684C69.8464 41.5985 68.3708 41.2498 66.8745 41.25H57.75C57.1116 41.2498 56.482 41.1015 55.9106 40.8168C55.3393 40.532 54.8419 40.1185 54.4575 39.6088C54.0731 39.0991 53.8122 38.5072 53.6955 37.8796C53.5787 37.2519 53.6092 36.6058 53.7845 35.992L57.805 21.923C58.4855 19.5404 58.2208 16.9872 57.0663 14.7948C55.9117 12.6025 53.9561 10.9398 51.6065 10.153L36.795 36.3605C35.9566 37.844 34.7394 39.0784 33.2677 39.9375C31.796 40.7965 30.1226 41.2494 28.4185 41.25H26.125V75.0695ZM17.875 41.25H9.625C9.26033 41.25 8.91059 41.3948 8.65273 41.6527C8.39487 41.9106 8.25 42.2603 8.25 42.625V78.375C8.25 79.134 8.866 79.75 9.625 79.75H16.5C16.8647 79.75 17.2144 79.6051 17.4723 79.3472C17.7301 79.0894 17.875 78.7396 17.875 78.375V41.25Z" fill="#2B64A9"/>
</g>
</g>
<defs>
<clipPath id="clip0_19_63">
<rect width="88" height="88" fill="white"/>
</clipPath>
<clipPath id="clip1_19_63">
<rect width="88" height="88" fill="white"/>
</clipPath>
</defs>
</svg>
