<svg width="88" height="88" viewBox="0 0 88 88" fill="none" xmlns="http://www.w3.org/2000/svg">
<g filter="url(#filter0_i_10_126)">
<circle cx="44" cy="44" r="44" fill="#F1F1F1"/>
</g>
<path fill-rule="evenodd" clip-rule="evenodd" d="M45.6307 74.9595L45.6005 74.965L45.4052 75.0613L45.3502 75.0723L45.3117 75.0613L45.1165 74.965C45.0872 74.9558 45.0652 74.9604 45.0505 74.9788L45.0395 75.0063L44.9927 76.1833L45.0065 76.2383L45.034 76.274L45.32 76.4775L45.3612 76.4885L45.3942 76.4775L45.6802 76.274L45.7132 76.23L45.7242 76.1833L45.6775 75.009C45.6701 74.9797 45.6546 74.9632 45.6307 74.9595ZM46.3595 74.6488L46.3237 74.6543L45.815 74.91L45.7875 74.9375L45.7792 74.9678L45.8287 76.1503L45.8425 76.1833L45.8645 76.2025L46.4172 76.4583C46.4521 76.4674 46.4787 76.4601 46.497 76.4363L46.508 76.3978L46.4145 74.7093C46.4053 74.6763 46.387 74.6561 46.3595 74.6488ZM44.3932 74.6543C44.3811 74.6469 44.3666 74.6445 44.3528 74.6476C44.339 74.6507 44.3269 74.659 44.319 74.6708L44.3025 74.7093L44.209 76.3978C44.2108 76.4308 44.2264 76.4528 44.2557 76.4638L44.297 76.4583L44.8497 76.2025L44.8772 76.1805L44.8882 76.1503L44.935 74.9678L44.9267 74.9348L44.8992 74.9073L44.3932 74.6543Z" fill="#2B64A9"/>
<path fill-rule="evenodd" clip-rule="evenodd" d="M44 16.5C44.7294 16.5 45.4288 16.7897 45.9446 17.3055C46.4603 17.8212 46.75 18.5207 46.75 19.25V21.8955L48.5485 20.944C49.1933 20.603 49.947 20.5321 50.644 20.7469C51.341 20.9617 51.9242 21.4446 52.2651 22.0894C52.6061 22.7341 52.677 23.4879 52.4622 24.1849C52.2474 24.8819 51.7645 25.465 51.1198 25.806L46.75 28.116V33.3465C48.7163 33.8525 50.468 34.8865 51.8485 36.2917L56.3805 33.6765L56.1963 28.7375C56.1689 28.0085 56.4323 27.2985 56.9284 26.7637C57.4245 26.2289 58.1128 25.9131 58.8418 25.8857C59.5707 25.8584 60.2807 26.1218 60.8155 26.6179C61.3503 27.114 61.6662 27.8023 61.6935 28.5312L61.7678 30.5662L64.0585 29.2435C64.3714 29.0601 64.7174 28.9404 65.0768 28.8912C65.4361 28.8421 65.8016 28.8645 66.1522 28.9572C66.5028 29.0499 66.8317 29.2111 67.1198 29.4314C67.4078 29.6517 67.6495 29.9268 67.8309 30.2408C68.0122 30.5549 68.1296 30.9018 68.1764 31.2614C68.2231 31.6211 68.1983 31.9864 68.1032 32.3364C68.0082 32.6864 67.8449 33.0142 67.6227 33.3008C67.4005 33.5874 67.1238 33.8272 66.8085 34.0065L64.5178 35.3265L66.242 36.41C66.5479 36.6021 66.8129 36.8526 67.022 37.1472C67.2311 37.4417 67.3801 37.7746 67.4605 38.1267C67.541 38.4789 67.5513 38.8434 67.4908 39.1995C67.4304 39.5556 67.3004 39.8964 67.1083 40.2023C66.9161 40.5081 66.6656 40.7732 66.3711 40.9823C66.0765 41.1913 65.7437 41.3403 65.3915 41.4208C65.0394 41.5012 64.6749 41.5115 64.3187 41.4511C63.9626 41.3906 63.6219 41.2606 63.316 41.0685L59.1305 38.4395L54.6013 41.052C55.1373 42.9799 55.1373 45.0174 54.6013 46.9452L59.1305 49.5605L63.316 46.9315C63.9338 46.5435 64.6804 46.4168 65.3915 46.5792C66.1027 46.7417 66.7202 47.18 67.1083 47.7977C67.4963 48.4155 67.623 49.1621 67.4605 49.8733C67.2981 50.5845 66.8598 51.202 66.242 51.59L64.5205 52.6707L66.8085 53.9935C67.1238 54.1728 67.4005 54.4126 67.6227 54.6992C67.8449 54.9858 68.0082 55.3136 68.1032 55.6636C68.1983 56.0136 68.2231 56.3789 68.1764 56.7386C68.1296 57.0982 68.0122 57.4451 67.8309 57.7592C67.6495 58.0732 67.4078 58.3483 67.1198 58.5686C66.8317 58.7889 66.5028 58.9501 66.1522 59.0428C65.8016 59.1355 65.4361 59.1579 65.0768 59.1088C64.7174 59.0596 64.3714 58.9399 64.0585 58.7565L61.7705 57.4365L61.6935 59.4688C61.6662 60.1977 61.3503 60.886 60.8155 61.3821C60.2807 61.8782 59.5707 62.1416 58.8418 62.1143C58.1128 62.0869 57.4245 61.7711 56.9284 61.2363C56.4323 60.7015 56.1689 59.9915 56.1963 59.2625L56.3805 54.3235L51.8485 51.7083C50.468 53.1108 48.7135 54.1475 46.75 54.6535V59.884L51.1198 62.194C51.7645 62.535 52.2474 63.1181 52.4622 63.8151C52.677 64.5121 52.6061 65.2659 52.2651 65.9106C51.9242 66.5554 51.341 67.0382 50.644 67.253C49.947 67.4678 49.1933 67.397 48.5485 67.056L46.75 66.1045V68.75C46.75 69.4793 46.4603 70.1788 45.9446 70.6945C45.4288 71.2103 44.7294 71.5 44 71.5C43.2707 71.5 42.5712 71.2103 42.0555 70.6945C41.5397 70.1788 41.25 69.4793 41.25 68.75V66.1045L39.4515 67.056C39.1323 67.2248 38.7829 67.3291 38.4233 67.3629C38.0638 67.3967 37.7011 67.3594 37.356 67.253C37.0109 67.1467 36.6901 66.9734 36.4119 66.7431C36.1338 66.5127 35.9037 66.2299 35.7349 65.9106C35.5661 65.5914 35.4618 65.242 35.4279 64.8825C35.3941 64.5229 35.4315 64.1602 35.5378 63.8151C35.6442 63.47 35.8175 63.1492 36.0478 62.871C36.2782 62.5929 36.561 62.3628 36.8803 62.194L41.25 59.884V54.6535C39.3142 54.1525 37.5515 53.1333 36.1515 51.7055L31.6195 54.3235L31.8038 59.2625C31.8171 59.6235 31.7593 59.9835 31.6335 60.3221C31.5077 60.6607 31.3164 60.9712 31.0707 61.2359C30.8249 61.5006 30.5294 61.7142 30.201 61.8647C29.8726 62.0152 29.5178 62.0995 29.1569 62.1129C28.7959 62.1262 28.4359 62.0684 28.0973 61.9426C27.7587 61.8168 27.4482 61.6256 27.1835 61.3798C26.9188 61.134 26.7052 60.8385 26.5547 60.5101C26.4042 60.1817 26.3199 59.827 26.3065 59.466L26.2323 57.4338L23.9415 58.7537C23.6285 58.9474 23.2797 59.0763 22.9159 59.1327C22.5522 59.1891 22.1808 59.1718 21.8238 59.082C21.4668 58.9922 21.1315 58.8316 20.8377 58.6098C20.5439 58.388 20.2976 58.1095 20.1135 57.7907C19.9293 57.472 19.8111 57.1195 19.7657 56.7542C19.7203 56.3889 19.7487 56.0182 19.8492 55.6641C19.9498 55.31 20.1204 54.9796 20.3509 54.6927C20.5815 54.4057 20.8674 54.1679 21.1915 53.9935L23.4823 52.6707L21.758 51.5872C21.1566 51.192 20.7341 50.5767 20.5812 49.8735C20.4283 49.1703 20.5571 48.4352 20.94 47.8258C21.323 47.2165 21.9295 46.7816 22.6294 46.6144C23.3294 46.4472 24.067 46.561 24.684 46.9315L28.8695 49.5605L33.3988 46.9452C32.8633 45.0183 32.8633 42.9817 33.3988 41.0548L28.8695 38.4422L24.684 41.0685C24.067 41.439 23.3294 41.5528 22.6294 41.3856C21.9295 41.2184 21.323 40.7835 20.94 40.1742C20.5571 39.5648 20.4283 38.8297 20.5812 38.1265C20.7341 37.4233 21.1566 36.808 21.758 36.4128L23.4823 35.3293L21.1915 34.0092C20.5595 33.6446 20.0983 33.0438 19.9093 32.3391C19.7203 31.6343 19.819 30.8834 20.1836 30.2514C20.5483 29.6194 21.1491 29.1582 21.8538 28.9692C22.5586 28.7801 23.3095 28.8788 23.9415 29.2435L26.2323 30.5662L26.3065 28.5312C26.3339 27.8023 26.6497 27.114 27.1845 26.6179C27.4493 26.3722 27.7599 26.1811 28.0986 26.0555C28.4372 25.9299 28.7973 25.8722 29.1583 25.8857C29.5192 25.8993 29.874 25.9838 30.2023 26.1344C30.5306 26.2851 30.826 26.4989 31.0716 26.7637C31.3173 27.0285 31.5084 27.3391 31.634 27.6778C31.7596 28.0165 31.8173 28.3765 31.8038 28.7375L31.6195 33.6765L36.1515 36.2945C37.5515 34.8667 39.3142 33.8475 41.25 33.3465V28.116L36.8803 25.806C36.2355 25.465 35.7526 24.8819 35.5378 24.1849C35.323 23.4879 35.3939 22.7341 35.7349 22.0894C36.0759 21.4446 36.659 20.9617 37.356 20.7469C38.053 20.5321 38.8068 20.603 39.4515 20.944L41.25 21.8955V19.25C41.25 18.5207 41.5397 17.8212 42.0555 17.3055C42.5712 16.7897 43.2707 16.5 44 16.5ZM44 49.5C45.4587 49.5 46.8576 48.9205 47.8891 47.8891C48.9205 46.8576 49.5 45.4587 49.5 44C49.5 42.5413 48.9205 41.1424 47.8891 40.1109C46.8576 39.0795 45.4587 38.5 44 38.5C42.5413 38.5 41.1424 39.0795 40.1109 40.1109C39.0795 41.1424 38.5 42.5413 38.5 44C38.5 45.4587 39.0795 46.8576 40.1109 47.8891C41.1424 48.9205 42.5413 49.5 44 49.5Z" fill="#2B64A9"/>
<defs>
<filter id="filter0_i_10_126" x="0" y="0" width="88" height="92" filterUnits="userSpaceOnUse" color-interpolation-filters="sRGB">
<feFlood flood-opacity="0" result="BackgroundImageFix"/>
<feBlend mode="normal" in="SourceGraphic" in2="BackgroundImageFix" result="shape"/>
<feColorMatrix in="SourceAlpha" type="matrix" values="0 0 0 0 0 0 0 0 0 0 0 0 0 0 0 0 0 0 127 0" result="hardAlpha"/>
<feOffset dy="4"/>
<feGaussianBlur stdDeviation="2"/>
<feComposite in2="hardAlpha" operator="arithmetic" k2="-1" k3="1"/>
<feColorMatrix type="matrix" values="0 0 0 0 0 0 0 0 0 0 0 0 0 0 0 0 0 0 0.25 0"/>
<feBlend mode="normal" in2="shape" result="effect1_innerShadow_10_126"/>
</filter>
</defs>
</svg>
