<svg width="88" height="88" viewBox="0 0 88 88" fill="none" xmlns="http://www.w3.org/2000/svg">
<g clip-path="url(#clip0_19_53)">
<path d="M51.1624 5.56246L44.9571 38.1652L67.437 38.2408L36.8377 82.4387L43.0431 46.5705L20.5646 46.4921L51.1624 5.56246ZM51.1666 0.0625498C51.0181 0.0625498 50.8697 0.0679639 50.7239 0.0788779C49.7532 0.157339 49.1096 0.481839 48.3466 0.994714C47.9169 1.28117 47.5295 1.62645 47.1957 2.02046C47.0955 2.13874 47.0009 2.26172 46.9123 2.38896L16.0945 43.1756C14.8776 44.8435 14.6988 47.0449 15.6338 48.8847C16.5675 50.7244 18.4553 51.8904 20.5247 51.9055L36.4005 52.021L31.4092 81.4282C30.9348 83.9554 32.2823 86.4744 34.6542 87.4892C35.3435 87.7854 36.086 87.9379 36.8363 87.9374C38.5646 87.9374 39.985 87.1289 41.0507 85.6687L71.9071 41.4706C73.124 39.8026 73.3014 37.5985 72.3677 35.7615C71.4341 33.9218 69.5462 32.7557 67.4768 32.7406L51.6011 32.7131L56.5387 6.85625C56.6433 6.43293 56.696 5.99844 56.6956 5.56238C56.6956 2.58688 54.3263 0.161378 51.3618 0.0651279C51.2959 0.0623779 51.2312 0.0623779 51.1667 0.0623779L51.1666 0.0625498Z" fill="#2B64A9"/>
</g>
<defs>
<clipPath id="clip0_19_53">
<rect width="88" height="88" fill="white"/>
</clipPath>
</defs>
</svg>
