<svg width="88" height="88" viewBox="0 0 88 88" fill="none" xmlns="http://www.w3.org/2000/svg">
<g filter="url(#filter0_i_10_115)">
<circle cx="44" cy="44" r="44" fill="#F1F1F1"/>
</g>
<g clip-path="url(#clip0_10_115)">
<path d="M20.525 20L18 22.525L22.4481 30.2173L25.3327 29.7942L42.9404 47.4038L41.4385 48.8462C40.6692 49.6154 40.6692 50.7808 41.4385 51.55L42.2192 52.3327C42.9885 53.1019 44.1654 53.1019 44.7423 52.3327L47.0269 54.6154C46.8346 55.7692 47.0269 57.1404 47.9885 58.1019L58.3846 68.4385C60.5 70.5538 63.9615 70.5538 66.0769 68.4385C68.5769 66.1308 68.5538 62.6808 66.4385 60.5654L56.1019 50.1673C55.1404 49.2058 53.7692 48.8212 52.6154 49.2058L50.0904 46.9231C50.6673 46.1538 50.6673 44.9769 50.0904 44.3981L49.3692 43.6788C49.1944 43.4965 48.9845 43.3515 48.7522 43.2524C48.5199 43.1533 48.2699 43.1022 48.0173 43.1022C47.7647 43.1022 47.5148 43.1533 47.2824 43.2524C47.0501 43.3515 46.8402 43.4965 46.6654 43.6788L45.4038 44.9404L27.7962 27.3327L28.2154 24.4481L20.525 20ZM58.025 20.0596C54.2308 19.7442 49.2 22.2596 46.8462 24.4462C43.95 27.3423 44.4231 31.1288 46.725 34.7846L42.6404 38.8712L45.525 42.1154C47.0635 40.7692 49.3327 40.7692 50.8712 42.1154L51.6538 42.8962L51.8346 43.0769L53.5173 41.3942C56.9942 43.4385 60.6135 43.7327 63.3731 40.9731C66.0654 38.4731 68.9846 32.3077 67.6385 28.6538L62.2308 34.2423C61.4615 35.0115 60.2962 35.0115 59.5269 34.2423L53.9365 28.6538C53.7542 28.479 53.6092 28.2691 53.5101 28.0368C53.411 27.8045 53.3599 27.5545 53.3599 27.3019C53.3599 27.0493 53.411 26.7994 53.5101 26.567C53.6092 26.3347 53.7542 26.1248 53.9365 25.95L59.5288 20.3615C59.0481 20.1923 58.5673 20.1058 58.025 20.0596ZM36.8712 44.0385L29.8981 51.0096C29.1487 50.8438 28.3829 50.7632 27.6154 50.7692C22.2308 50.7692 18 55 18 60.3846C18 65.7692 22.2308 70 27.6154 70C33 70 37.2308 65.7692 37.2308 60.3846C37.2308 59.3981 37.075 58.45 36.8096 57.5596L40.8962 53.4731L40.2962 52.6923C38.7577 51.1538 38.7692 48.8231 40.1154 47.2827L36.8712 44.0385ZM51.775 52.8135C52.0154 52.8135 52.2423 52.8596 52.4346 53.0538L63.7942 64.4115C64.1788 64.7962 64.1788 65.4077 63.7942 65.7923C63.4096 66.1769 62.7942 66.1769 62.4096 65.7923L51.0538 54.4346C50.6692 54.05 50.6692 53.4385 51.0538 53.0538C51.2462 52.8615 51.5346 52.8135 51.775 52.8135ZM28.9385 55.3942L32.6038 59.0615L31.2808 64.0481L26.2942 65.3712L22.6269 61.7038L23.95 56.7173L28.9385 55.3942Z" fill="#2B64A9"/>
</g>
<defs>
<filter id="filter0_i_10_115" x="0" y="0" width="88" height="92" filterUnits="userSpaceOnUse" color-interpolation-filters="sRGB">
<feFlood flood-opacity="0" result="BackgroundImageFix"/>
<feBlend mode="normal" in="SourceGraphic" in2="BackgroundImageFix" result="shape"/>
<feColorMatrix in="SourceAlpha" type="matrix" values="0 0 0 0 0 0 0 0 0 0 0 0 0 0 0 0 0 0 127 0" result="hardAlpha"/>
<feOffset dy="4"/>
<feGaussianBlur stdDeviation="2"/>
<feComposite in2="hardAlpha" operator="arithmetic" k2="-1" k3="1"/>
<feColorMatrix type="matrix" values="0 0 0 0 0 0 0 0 0 0 0 0 0 0 0 0 0 0 0.25 0"/>
<feBlend mode="normal" in2="shape" result="effect1_innerShadow_10_115"/>
</filter>
<clipPath id="clip0_10_115">
<rect width="50" height="50" fill="white" transform="translate(18 20)"/>
</clipPath>
</defs>
</svg>
