<svg width="88" height="88" viewBox="0 0 88 88" fill="none" xmlns="http://www.w3.org/2000/svg">
<path d="M7.33331 69.6666V36.6666C7.33331 34.65 8.05198 32.9242 9.48931 31.4893C10.9266 30.0544 12.6524 29.3357 14.6666 29.3333H25.6666V22C25.6666 19.9833 26.3853 18.2575 27.8226 16.8226C29.26 15.3877 30.9858 14.6691 33 14.6666H55C57.0166 14.6666 58.7436 15.3853 60.181 16.8226C61.6183 18.26 62.3358 19.9857 62.3333 22V29.3333H73.3333C75.35 29.3333 77.077 30.052 78.5143 31.4893C79.9516 32.9266 80.6691 34.6524 80.6666 36.6666V69.6666C80.6666 70.7055 80.3146 71.577 79.6106 72.281C78.9066 72.985 78.0364 73.3357 77 73.3333H11C9.96109 73.3333 9.09087 72.9813 8.38931 72.2773C7.68776 71.5733 7.33576 70.7031 7.33331 69.6666ZM29.3333 55C29.3333 56.0388 28.9813 56.9103 28.2773 57.6143C27.5733 58.3183 26.7031 58.6691 25.6666 58.6666C24.6302 58.6642 23.76 58.3122 23.056 57.6106C22.352 56.9091 22 56.0388 22 55H14.6666V66H73.3333V55H66C66 56.0388 65.648 56.9103 64.944 57.6143C64.24 58.3183 63.3698 58.6691 62.3333 58.6666C61.2969 58.6642 60.4266 58.3122 59.7226 57.6106C59.0186 56.9091 58.6666 56.0388 58.6666 55H29.3333ZM14.6666 36.6666V47.6666H22C22 46.6277 22.352 45.7575 23.056 45.056C23.76 44.3544 24.6302 44.0024 25.6666 44C26.7031 43.9975 27.5745 44.3495 28.281 45.056C28.9874 45.7624 29.3382 46.6326 29.3333 47.6666H58.6666C58.6666 46.6277 59.0186 45.7575 59.7226 45.056C60.4266 44.3544 61.2969 44.0024 62.3333 44C63.3698 43.9975 64.2412 44.3495 64.9476 45.056C65.6541 45.7624 66.0049 46.6326 66 47.6666H73.3333V36.6666H14.6666ZM33 29.3333H55V22H33V29.3333Z" fill="#2B64A9"/>
</svg>
