<svg width="88" height="88" viewBox="0 0 88 88" fill="none" xmlns="http://www.w3.org/2000/svg">
<g clip-path="url(#clip0_19_48)">
<path d="M64.9 33.66C66.242 32.0155 65.967 29.623 64.295 28.3085C62.623 26.994 60.1755 27.2635 58.839 28.9025L40.634 51.2325L30.899 43.7525C30.1038 43.1053 29.0872 42.7943 28.066 42.8857C27.0447 42.9771 26.0996 43.4638 25.432 44.242C25.1058 44.6237 24.8595 45.0668 24.7075 45.5453C24.5555 46.0238 24.501 46.5279 24.5472 47.0278C24.5933 47.5277 24.7392 48.0133 24.9762 48.4559C25.2132 48.8984 25.5365 49.289 25.927 49.6045L38.687 59.5595C39.4928 60.2149 40.5251 60.525 41.5587 60.4219C42.5922 60.3189 43.543 59.8111 44.2035 59.0095L64.8835 33.5995L64.9 33.66Z" fill="#2B64A9"/>
<path fill-rule="evenodd" clip-rule="evenodd" d="M35.805 3.92705C38.742 1.77105 40.2105 0.693047 41.8 0.275047C43.2203 -0.0853346 44.7082 -0.0853346 46.1285 0.275047C47.7345 0.693047 49.2085 1.77105 52.1235 3.92705L55.847 6.66055C56.8645 7.40855 57.376 7.78255 57.926 8.07405C58.4173 8.33071 58.9288 8.54338 59.4605 8.71205C60.06 8.89355 60.6815 8.98705 61.93 9.17955L66.495 9.87805C70.0975 10.428 71.896 10.7085 73.315 11.55C74.58 12.2925 75.636 13.3485 76.3785 14.6135C77.22 16.0435 77.495 17.8475 78.0505 21.4335L78.749 25.9985C78.9415 27.247 79.035 27.874 79.2165 28.4735C79.3815 29.0052 79.5942 29.5149 79.8545 30.0025C80.1515 30.5525 80.52 31.064 81.268 32.0816L84.0015 35.805C86.1575 38.7421 87.2355 40.2105 87.6535 41.8C88.0139 43.2204 88.0139 44.7082 87.6535 46.1285C87.241 47.7345 86.1575 49.2085 84.0015 52.1235L81.268 55.847C80.7446 56.5031 80.2721 57.1981 79.8545 57.926C79.5936 58.418 79.38 58.9337 79.2165 59.466C79.035 60.06 78.9415 60.6815 78.749 61.93L78.0505 66.495C77.5005 70.0975 77.22 71.896 76.3785 73.315C75.636 74.58 74.58 75.636 73.315 76.3785C71.885 77.22 70.081 77.495 66.495 78.0505L61.93 78.749C61.096 78.8437 60.2704 79.0018 59.4605 79.222C58.9288 79.3834 58.4173 79.596 57.926 79.86C57.376 80.1516 56.8645 80.5201 55.847 81.2735L52.1235 84.007C49.1865 86.163 47.718 87.241 46.1285 87.659C44.7082 88.0194 43.2203 88.0194 41.8 87.659C40.194 87.241 38.72 86.163 35.805 84.007L32.0815 81.2735C31.4255 80.7502 30.7304 80.2777 30.0025 79.86C29.5123 79.5994 28.9985 79.3858 28.468 79.222C27.6581 79.0018 26.8325 78.8437 25.9985 78.749L21.4335 78.0505C17.831 77.5005 16.027 77.2255 14.6135 76.3785C13.353 75.6286 12.2999 74.5756 11.55 73.315C10.7085 71.885 10.4335 70.081 9.878 66.495L9.1795 61.93C8.987 60.6815 8.8935 60.06 8.712 59.4605C8.55153 58.9289 8.33777 58.4148 8.074 57.926C7.65639 57.1981 7.18385 56.5031 6.6605 55.847L3.927 52.1235C1.771 49.1865 0.693001 47.7235 0.275001 46.1285C-0.0853803 44.7082 -0.0853803 43.2204 0.275001 41.8C0.687501 40.194 1.771 38.7201 3.927 35.805L6.6605 32.0816C7.4085 31.064 7.7825 30.5525 8.074 30.0025C8.33067 29.5149 8.54333 29.0034 8.712 28.468C8.8935 27.8685 8.987 27.247 9.1795 25.9985L9.878 21.4335C10.428 17.831 10.7085 16.027 11.55 14.6135C12.2925 13.3485 13.3485 12.3035 14.6135 11.55C16.0435 10.7085 17.8475 10.4335 21.4335 9.87805L25.9985 9.17955C27.247 8.99255 27.874 8.89355 28.468 8.71205C28.9997 8.54705 29.5112 8.33438 30.0025 8.07405C30.5525 7.78255 31.064 7.40855 32.0815 6.66055L35.805 3.92705ZM48.895 8.36005L52.8055 11.231C53.636 11.8415 54.4555 12.4465 55.3685 12.9305C56.1752 13.3595 57.0112 13.706 57.8765 13.97C58.8657 14.2436 59.8728 14.4476 60.8905 14.5805L65.6865 15.3175C69.762 15.9445 70.268 16.115 70.565 16.291C71.0307 16.5697 71.401 16.94 71.676 17.402C71.852 17.699 72.028 18.205 72.6495 22.2805L73.3865 27.0765C73.5194 28.0942 73.7234 29.1014 73.997 30.0905C74.2647 30.9632 74.6112 31.7992 75.0365 32.5985C75.5205 33.5115 76.1255 34.331 76.736 35.1615L79.607 39.072C82.049 42.394 82.28 42.8725 82.368 43.2135C82.4948 43.7302 82.4948 44.2699 82.368 44.7865C82.28 45.122 82.049 45.6005 79.607 48.928L76.736 52.8385C76.1255 53.669 75.5205 54.4885 75.0365 55.4015C74.6112 56.2027 74.2632 57.0425 73.997 57.9095C73.7234 58.8987 73.5194 59.9059 73.3865 60.9235L72.6495 65.7195C72.0225 69.795 71.852 70.301 71.676 70.598C71.4005 71.0524 71.0194 71.4336 70.565 71.709C70.268 71.885 69.762 72.061 65.6865 72.6825L60.8905 73.4195C59.8728 73.5525 58.8657 73.7565 57.8765 74.03C57.0094 74.2962 56.1696 74.6443 55.3685 75.0695C54.4555 75.5535 53.636 76.1585 52.8055 76.769L48.895 79.64C45.573 82.082 45.0945 82.313 44.7535 82.401C44.2368 82.5278 43.6972 82.5278 43.1805 82.401C42.845 82.313 42.3665 82.082 39.039 79.64L35.1285 76.769C34.3149 76.1435 33.4584 75.5756 32.5655 75.0695C31.7644 74.6443 30.9246 74.2962 30.0575 74.03C29.0683 73.7565 28.0612 73.5525 27.0435 73.4195L22.2475 72.6825C18.172 72.0555 17.666 71.885 17.369 71.709C16.9146 71.4336 16.5335 71.0524 16.258 70.598C16.082 70.301 15.906 69.795 15.2845 65.7195L14.5475 60.9235C14.4146 59.9059 14.2106 58.8987 13.937 57.9095C13.6708 57.0425 13.3228 56.2027 12.8975 55.4015C12.4135 54.4885 11.8085 53.669 11.198 52.8385L8.327 48.928C5.885 45.606 5.654 45.1275 5.566 44.7865C5.43921 44.2699 5.43921 43.7302 5.566 43.2135C5.654 42.878 5.885 42.3995 8.327 39.072L11.198 35.1615C11.8085 34.331 12.4135 33.5115 12.8975 32.5985C13.3228 31.7919 13.6693 30.9559 13.937 30.0905C14.2106 29.1014 14.4146 28.0942 14.5475 27.0765L15.2845 22.2805C15.9115 18.205 16.082 17.699 16.258 17.402C16.5335 16.9477 16.9146 16.5665 17.369 16.291C17.666 16.115 18.172 15.939 22.2475 15.3175L27.0435 14.5805C28.0612 14.4476 29.0683 14.2436 30.0575 13.97C30.9302 13.7024 31.7662 13.3559 32.5655 12.9305C33.4785 12.4465 34.298 11.8415 35.1285 11.231L39.039 8.36005C42.361 5.91805 42.8395 5.68705 43.1805 5.59905C43.6972 5.47225 44.2368 5.47225 44.7535 5.59905C45.089 5.68705 45.5675 5.91805 48.895 8.36005Z" fill="#2B64A9"/>
</g>
<defs>
<clipPath id="clip0_19_48">
<rect width="88" height="88" fill="white"/>
</clipPath>
</defs>
</svg>
